<?xml version="1.0" encoding="utf-8"?>
<!-- Generator: Adobe Illustrator 28.3.0, SVG Export Plug-In . SVG Version: 6.00 Build 0)  -->
<svg version="1.1" id="Layer_1" xmlns="http://www.w3.org/2000/svg" xmlns:xlink="http://www.w3.org/1999/xlink" x="0px" y="0px"
	 viewBox="0 0 170 50" style="enable-background:new 0 0 170 50;" xml:space="preserve">
<style type="text/css">
	.st0{fill:url(#SVGID_1_);}
	.st1{opacity:0.3;}
	.st2{fill:#FFFFFF;}
</style>
<linearGradient id="SVGID_1_" gradientUnits="userSpaceOnUse" x1="0" y1="25" x2="170" y2="25">
	<stop  offset="0" style="stop-color:#007662"/>
	<stop  offset="0.3641" style="stop-color:#007F62"/>
	<stop  offset="0.9679" style="stop-color:#009962"/>
	<stop  offset="0.9944" style="stop-color:#009A62"/>
</linearGradient>
<rect class="st0" width="170" height="50"/>
<g class="st1">
	<path class="st2" d="M46.32,40.99c-8.82-8.82-8.82-23.17,0-31.98c4.27-4.27,9.95-6.62,15.99-6.62s11.72,2.35,15.99,6.62
		c0.07,0.07,0.07,0.18,0,0.24c-0.07,0.07-0.18,0.07-0.24,0c-4.21-4.21-9.8-6.52-15.75-6.52c-9.4,0-17.06,9.99-17.06,22.27
		c0,12.28,7.65,22.27,17.06,22.27c5.95,0,11.54-2.32,15.75-6.52c0.07-0.07,0.18-0.07,0.24,0c0.07,0.07,0.07,0.18,0,0.24
		c-4.27,4.27-9.95,6.63-15.99,6.63S50.59,45.26,46.32,40.99z"/>
	<path class="st2" d="M77.45,2.38h15.81c6.28,0,11.4,5.11,11.4,11.39c0,5.61-4.07,10.28-9.41,11.22c5.34,0.94,9.41,5.61,9.41,11.22
		c0,6.28-5.11,11.4-11.4,11.4H81.73c0,0,0,0,0,0h-5.21c-0.1,0-0.17-0.08-0.17-0.17V2.56c0-0.09,0.08-0.17,0.17-0.17h0.93
		C77.44,2.38,77.45,2.38,77.45,2.38z M79.16,2.73c1.61,0.67,2.74,2.26,2.74,4.11v17.99h11.37c3.22,0,5.83-4.96,5.83-11.05
		c0-6.09-2.62-11.05-5.83-11.05H79.16z M81.9,25.17v22.1h11.37c3.22,0,5.83-4.96,5.83-11.05c0-6.09-2.62-11.05-5.83-11.05H81.9z"/>
	<path class="st2" d="M118.9,47.62h-5.55c-6.28,0-11.39-5.11-11.39-11.4c0-0.1,0.08-0.17,0.17-0.17s0.17,0.08,0.17,0.17
		c0,6.09,4.96,11.05,11.05,11.05h5.55c3.22,0,5.83-4.96,5.83-11.05c0-6.09-2.62-11.05-5.83-11.05h-5.55
		c-6.28,0-11.39-5.11-11.39-11.39s5.11-11.4,11.39-11.4h5.55c6.28,0,11.38,5.11,11.38,11.4c0,0.1-0.08,0.17-0.17,0.17
		s-0.17-0.08-0.17-0.17c0-6.09-4.95-11.05-11.04-11.05h-5.55c-3.22,0-5.83,4.96-5.83,11.05c0,6.09,2.62,11.05,5.83,11.05h5.55
		c6.28,0,11.39,5.11,11.39,11.39C130.29,42.5,125.18,47.62,118.9,47.62z"/>
</g>
<g>
	<path class="st2" d="M36.41,13.68l-0.21,2.77c-0.31,0.51-0.69,0.96-1.16,1.35c-0.46,0.39-1.01,0.71-1.64,0.94
		c-0.63,0.23-1.35,0.34-2.16,0.34c-1.22-0.01-2.31-0.28-3.27-0.81c-0.95-0.53-1.7-1.27-2.23-2.23c-0.54-0.96-0.8-2.09-0.8-3.4
		c0-1.28,0.26-2.4,0.79-3.36c0.53-0.96,1.27-1.71,2.23-2.24c0.96-0.54,2.09-0.8,3.38-0.8c0.87,0,1.66,0.11,2.36,0.34
		s1.31,0.52,1.83,0.86l0.35,2.49h-0.16c-0.26-1.04-0.79-1.82-1.59-2.36c-0.8-0.54-1.73-0.8-2.79-0.8c-1.04,0-1.93,0.24-2.69,0.73
		c-0.76,0.49-1.35,1.17-1.77,2.05c-0.42,0.88-0.63,1.9-0.63,3.08s0.21,2.21,0.63,3.09c0.42,0.88,1,1.57,1.75,2.07
		c0.75,0.49,1.62,0.75,2.61,0.78c0.84,0,1.61-0.16,2.32-0.47c0.71-0.31,1.31-0.82,1.79-1.54c0.48-0.71,0.79-1.67,0.92-2.87H36.41z"
		/>
	<path class="st2" d="M39.38,17.55c-0.13,0.35-0.11,0.63,0.05,0.82c0.16,0.19,0.35,0.29,0.57,0.29h0.14v0.18h-3.37v-0.18h0.14
		c0.25,0,0.5-0.09,0.76-0.26c0.26-0.17,0.48-0.46,0.67-0.86H39.38z M42.78,7.99l0.12,1.22l-4.04,9.57h-1.11l4.19-8.97
		c0.13-0.28,0.24-0.53,0.33-0.73c0.09-0.21,0.17-0.41,0.24-0.61c0.07-0.2,0.11-0.36,0.12-0.48H42.78z M44.87,14.72v0.53h-4.68v-0.53
		H44.87z M42.78,7.99l4.86,10.74h-1.4l-3.76-9.17L42.78,7.99z M45.77,17.55h1.34c0.18,0.4,0.39,0.69,0.65,0.86
		c0.26,0.17,0.51,0.26,0.74,0.26h0.14v0.18h-3.62v-0.18h0.14c0.2,0,0.38-0.1,0.55-0.29C45.88,18.18,45.9,17.9,45.77,17.55z"/>
	<path class="st2" d="M50.1,17.66v1.18h-1.84v-0.18h0.27c0.31,0,0.57-0.09,0.8-0.27c0.23-0.18,0.36-0.42,0.4-0.74H50.1z M51.1,7.99
		h0.18l0.35,1.04l-1.1,9.8h-0.97L51.1,7.99z M50.63,17.92c-0.01,0.18,0.03,0.34,0.12,0.5c0.09,0.16,0.27,0.24,0.53,0.26h0.25v0.16
		h-1.01v-0.92H50.63z M51.28,7.99l4.8,9.24l-0.41,1.85l-4.73-9.15L51.28,7.99z M60.45,7.99l0.16,1.15l-4.13,8.14
		c-0.18,0.4-0.31,0.74-0.41,1.02c-0.09,0.28-0.16,0.54-0.21,0.79h-0.18l-0.25-1.11L60.45,7.99z M60.61,7.99l1.59,10.84h-1.34
		l-1.15-8.88l0.74-1.96H60.61z M60.73,17.92h0.12v0.92h-1.02v-0.16h0.27c0.27-0.01,0.45-0.1,0.54-0.26S60.75,18.09,60.73,17.92z
		 M61.67,17.66h0.35c0.05,0.32,0.19,0.57,0.42,0.74c0.24,0.18,0.5,0.27,0.8,0.27h0.26v0.18h-1.84V17.66z"/>
	<path class="st2" d="M65.46,9.35h-0.04c-0.01-0.27-0.11-0.49-0.31-0.67c-0.19-0.18-0.43-0.27-0.71-0.27h-0.25V8.24h1.54L65.46,9.35
		z M65.46,17.71l0.23,1.13h-1.54v-0.18h0.25c0.28,0,0.52-0.09,0.71-0.28c0.19-0.19,0.3-0.41,0.31-0.67H65.46z M66.56,8.24v10.6
		h-1.13V8.24H66.56z M66.51,17.71h0.04c0.01,0.26,0.11,0.48,0.31,0.67c0.19,0.19,0.43,0.28,0.71,0.28c0.01,0,0.09,0,0.25,0v0.18
		h-1.54L66.51,17.71z M68.29,8.24c0.82,0,1.54,0.12,2.14,0.36c0.6,0.24,1.07,0.59,1.4,1.04c0.33,0.45,0.49,0.99,0.49,1.62
		c0,0.67-0.15,1.24-0.45,1.72c-0.3,0.48-0.7,0.84-1.19,1.1c-0.49,0.25-1.04,0.38-1.64,0.37c-0.6-0.01-1.2-0.16-1.8-0.45v-0.18
		c0.39,0.07,0.74,0.1,1.04,0.1c0.31-0.01,0.63-0.06,0.97-0.16c0.34-0.1,0.66-0.29,0.96-0.56c0.3-0.27,0.54-0.66,0.71-1.17
		c0.05-0.13,0.08-0.28,0.1-0.46c0.02-0.18,0.03-0.34,0.03-0.49c0-0.72-0.25-1.28-0.74-1.7s-1.18-0.62-2.05-0.62h-1.73
		c-0.06-0.18-0.12-0.35-0.19-0.53H68.29z"/>
	<path class="st2" d="M79.28,7.99c0.54,0,1.05,0.04,1.53,0.11c0.48,0.08,0.93,0.19,1.36,0.35c0.43,0.16,0.84,0.36,1.23,0.61
		l0.39,2.49h-0.16c-0.17-0.69-0.43-1.27-0.8-1.71s-0.85-0.78-1.44-1c-0.59-0.22-1.3-0.33-2.12-0.33c-0.9,0-1.68,0.2-2.36,0.61
		c-0.68,0.41-1.2,0.98-1.58,1.73c-0.38,0.75-0.57,1.64-0.57,2.68c0,1.02,0.19,1.91,0.57,2.67c0.38,0.75,0.91,1.33,1.59,1.74
		c0.68,0.41,1.47,0.61,2.37,0.61c0.49,0,0.97-0.05,1.41-0.16c0.45-0.11,0.88-0.27,1.3-0.5c0.42-0.23,0.81-0.52,1.17-0.87l0.02-2.35
		c0.01-0.22-0.06-0.39-0.2-0.51c-0.15-0.12-0.35-0.18-0.61-0.18h-0.25v-0.18h3.23v0.18h-0.25c-0.53,0-0.8,0.24-0.8,0.71v2.12
		c-0.27,0.34-0.64,0.69-1.11,1.04c-0.47,0.35-1.03,0.65-1.69,0.88c-0.65,0.24-1.4,0.35-2.23,0.35c-1.17-0.01-2.18-0.24-3.05-0.69
		c-0.87-0.45-1.54-1.08-2.02-1.91c-0.48-0.82-0.72-1.81-0.72-2.95c0-1.15,0.24-2.14,0.72-2.97c0.48-0.82,1.16-1.46,2.03-1.91
		C77.11,8.22,78.12,7.99,79.28,7.99z"/>
	<path class="st2" d="M87.26,9.35h-0.04c-0.01-0.27-0.11-0.49-0.3-0.67c-0.19-0.18-0.43-0.27-0.71-0.27h-0.25V8.24h1.5L87.26,9.35z
		 M87.26,17.71l0.21,1.13h-1.5v-0.18h0.25c0.28,0,0.52-0.09,0.71-0.28c0.19-0.19,0.29-0.41,0.3-0.67H87.26z M88.34,8.24v10.6h-1.13
		V8.24H88.34z M88.28,17.71h0.05c0.01,0.26,0.11,0.48,0.3,0.67c0.19,0.19,0.43,0.28,0.71,0.28h0.23l0.02,0.18h-1.52L88.28,17.71z
		 M90.4,8.24c0.55,0,1.05,0.06,1.49,0.19c0.44,0.13,0.82,0.32,1.13,0.56c0.31,0.25,0.55,0.55,0.71,0.9c0.16,0.35,0.25,0.75,0.25,1.2
		c0,0.49-0.12,0.95-0.35,1.38c-0.24,0.42-0.56,0.77-0.98,1.04c-0.42,0.27-0.89,0.44-1.42,0.49c0.2,0.08,0.43,0.27,0.7,0.55
		c0.27,0.28,0.49,0.56,0.68,0.83c0.31,0.41,0.58,0.77,0.82,1.07c0.24,0.3,0.48,0.59,0.71,0.86c0.25,0.27,0.47,0.51,0.68,0.71
		c0.21,0.2,0.43,0.36,0.67,0.47c0.24,0.11,0.52,0.17,0.84,0.17v0.18h-0.55c-0.65,0-1.18-0.08-1.6-0.25
		c-0.42-0.16-0.76-0.37-1.02-0.61s-0.48-0.47-0.67-0.7c-0.05-0.06-0.16-0.21-0.33-0.45c-0.17-0.24-0.36-0.5-0.56-0.79
		c-0.2-0.28-0.38-0.54-0.55-0.77s-0.26-0.37-0.3-0.41c-0.24-0.31-0.51-0.58-0.81-0.82c-0.31-0.24-0.63-0.36-0.97-0.36v-0.18
		c0.38,0.01,0.71,0.01,1.01,0c0.33-0.01,0.66-0.04,0.99-0.08s0.64-0.17,0.93-0.38c0.29-0.21,0.52-0.57,0.68-1.06
		c0.05-0.13,0.08-0.28,0.11-0.46c0.02-0.18,0.03-0.36,0.02-0.55c-0.01-0.33-0.07-0.62-0.18-0.88c-0.11-0.26-0.27-0.48-0.48-0.67
		c-0.21-0.19-0.45-0.34-0.73-0.44c-0.28-0.11-0.6-0.16-0.95-0.18c-0.55-0.02-1.04-0.03-1.45-0.02c-0.41,0.01-0.62,0.01-0.62,0
		c0-0.01-0.01-0.06-0.04-0.15c-0.03-0.09-0.07-0.22-0.13-0.4H90.4z"/>
	<path class="st2" d="M101.85,7.99c0.82,0,1.6,0.13,2.32,0.4c0.72,0.27,1.36,0.64,1.91,1.14c0.55,0.49,0.97,1.08,1.28,1.76
		c0.31,0.68,0.46,1.43,0.46,2.25c0,0.83-0.15,1.58-0.46,2.25c-0.31,0.68-0.73,1.26-1.28,1.76c-0.55,0.5-1.18,0.87-1.91,1.14
		c-0.72,0.27-1.5,0.4-2.32,0.4c-0.83,0-1.6-0.13-2.32-0.4c-0.72-0.26-1.35-0.64-1.9-1.14c-0.55-0.49-0.98-1.08-1.28-1.76
		c-0.3-0.68-0.46-1.43-0.46-2.25c0-0.82,0.15-1.57,0.46-2.25c0.31-0.68,0.73-1.26,1.28-1.76c0.55-0.49,1.18-0.87,1.9-1.14
		C100.25,8.13,101.02,7.99,101.85,7.99z M101.85,18.56c0.87,0,1.66-0.21,2.37-0.64c0.71-0.42,1.26-1.01,1.68-1.77
		c0.41-0.75,0.62-1.62,0.62-2.61c0-1-0.21-1.87-0.62-2.62c-0.41-0.75-0.97-1.33-1.68-1.76c-0.71-0.42-1.5-0.64-2.37-0.64
		c-0.86,0-1.64,0.21-2.35,0.64c-0.71,0.42-1.27,1.01-1.68,1.76c-0.41,0.75-0.62,1.62-0.62,2.62c0,0.99,0.21,1.86,0.62,2.61
		c0.41,0.75,0.97,1.34,1.68,1.77C100.21,18.34,100.99,18.56,101.85,18.56z"/>
	<path class="st2" d="M109.92,8.24v0.94h-0.04c-0.01-0.21-0.1-0.39-0.25-0.54c-0.16-0.15-0.36-0.22-0.59-0.22h-0.26V8.24H109.92z
		 M111.01,8.24v6.68c0,1.14,0.29,2.04,0.87,2.7c0.58,0.66,1.38,0.99,2.39,0.99c1.12,0,2-0.31,2.64-0.94
		c0.64-0.62,0.96-1.48,0.96-2.56V8.24h0.81v6.87c0,1.22-0.39,2.19-1.17,2.91c-0.78,0.71-1.86,1.07-3.22,1.07
		c-1.35,0-2.43-0.35-3.22-1.06c-0.79-0.71-1.19-1.67-1.19-2.9V8.24H111.01z M112.13,8.24v0.18h-0.27c-0.22,0-0.42,0.07-0.59,0.22
		c-0.17,0.15-0.26,0.33-0.26,0.54h-0.03V8.24H112.13z M117.92,8.24v0.94h-0.04c0-0.21-0.08-0.39-0.25-0.54
		c-0.16-0.15-0.36-0.22-0.6-0.22h-0.27V8.24H117.92z M119.81,8.24v0.18h-0.27c-0.22,0-0.42,0.07-0.58,0.22
		c-0.16,0.15-0.25,0.33-0.26,0.54h-0.03V8.24H119.81z"/>
	<path class="st2" d="M121.93,17.74v1.1h-1.32v-0.18h0.3c0.27,0,0.5-0.09,0.69-0.27c0.19-0.18,0.28-0.39,0.28-0.65H121.93z
		 M121.9,7.98l0.76,0.99l0.02,9.87h-0.8v-8.66c0-0.6-0.05-1.34-0.16-2.21H121.9z M121.9,7.98l9.79,9.22l0.18,1.89l-9.79-9.27
		L121.9,7.98z M122.67,17.74c0,0.26,0.1,0.48,0.29,0.65c0.19,0.18,0.42,0.27,0.68,0.27h0.3v0.18h-1.32v-1.1H122.67z M131.08,9.34
		c-0.01-0.26-0.11-0.48-0.3-0.65c-0.19-0.18-0.42-0.27-0.69-0.27h-0.3V8.24h1.32v1.1H131.08z M131.86,8.24v8.58
		c0,0.38,0.01,0.74,0.04,1.09c0.02,0.35,0.06,0.74,0.12,1.17h-0.16l-0.78-0.94V8.24H131.86z M131.81,9.34v-1.1h1.32v0.18h-0.3
		c-0.26,0-0.48,0.09-0.68,0.27c-0.19,0.18-0.29,0.39-0.29,0.65H131.81z"/>
	<path class="st2" d="M135.55,9.39h-0.03c-0.01-0.28-0.11-0.52-0.31-0.7c-0.2-0.18-0.43-0.27-0.72-0.27h-0.21V8.24h1.27V9.39z
		 M135.55,17.69v1.15h-1.27v-0.18h0.23c0.28,0,0.52-0.1,0.71-0.29c0.19-0.19,0.29-0.42,0.3-0.68H135.55z M136.66,8.24v10.6h-1.15
		V8.24H136.66z M140.18,8.24c1.17,0,2.17,0.21,3.02,0.64c0.85,0.42,1.5,1.03,1.96,1.83c0.46,0.8,0.69,1.74,0.69,2.83
		c0,1.1-0.23,2.04-0.69,2.83c-0.46,0.79-1.11,1.4-1.96,1.83c-0.85,0.43-1.86,0.64-3.02,0.64h-3.76l-0.03-0.53c0.82,0,1.52,0,2.07,0
		c0.56,0,1.13,0,1.72,0c1.37,0,2.44-0.43,3.22-1.28c0.78-0.85,1.17-2.02,1.17-3.49c0-1.47-0.39-2.63-1.17-3.49
		c-0.78-0.85-1.86-1.28-3.22-1.28c-0.61,0-1.21,0-1.8,0c-0.59,0-1.31,0-2.17,0V8.24H140.18z"/>
	<path class="st2" d="M48.52,19.54h-0.05c0-0.31-0.11-0.57-0.34-0.79c-0.22-0.22-0.49-0.33-0.79-0.33c-0.01,0-0.05,0-0.1,0
		c-0.05,0-0.09,0-0.11,0l-0.02-0.18h1.41V19.54z M48.52,29.32v1.29H47.1l0.02-0.18c0.02,0,0.06,0,0.11,0c0.05,0,0.09,0,0.1,0
		c0.31,0,0.57-0.11,0.79-0.33c0.22-0.22,0.34-0.48,0.34-0.79H48.52z M49.61,18.25v12.36h-1.15V18.25H49.61z M50.62,18.25
		c0.82,0,1.52,0.12,2.09,0.37c0.57,0.25,1,0.59,1.3,1.03s0.44,0.96,0.44,1.55c0,0.49-0.09,0.93-0.28,1.3
		c-0.19,0.37-0.43,0.67-0.72,0.9c-0.29,0.23-0.61,0.39-0.94,0.48c0.62,0.09,1.16,0.3,1.62,0.62c0.45,0.32,0.8,0.71,1.04,1.19
		c0.24,0.48,0.36,1.01,0.36,1.6c0,0.66-0.16,1.24-0.48,1.74c-0.32,0.5-0.79,0.89-1.4,1.17c-0.62,0.28-1.36,0.41-2.23,0.41h-1.96
		c0.01-0.21,0.02-0.42,0.02-0.64h1.87c0.61,0,1.13-0.11,1.55-0.33c0.42-0.22,0.75-0.54,0.97-0.96c0.22-0.42,0.34-0.93,0.34-1.52
		c0-0.66-0.13-1.19-0.38-1.61c-0.25-0.41-0.58-0.72-0.98-0.94c-0.4-0.21-0.83-0.36-1.3-0.43c-0.47-0.08-0.91-0.11-1.33-0.11v-0.16
		c0.27,0,0.57-0.03,0.9-0.09c0.33-0.06,0.65-0.18,0.95-0.35c0.31-0.18,0.56-0.44,0.76-0.79c0.2-0.35,0.3-0.8,0.3-1.37
		c0-0.53-0.1-0.98-0.29-1.36c-0.19-0.38-0.48-0.66-0.87-0.86c-0.38-0.19-0.86-0.29-1.42-0.29h-1.63c0-0.01-0.01-0.06-0.04-0.15
		c-0.03-0.09-0.07-0.23-0.13-0.41H50.62z"/>
	<path class="st2" d="M62.79,19.77c0.82,0,1.6,0.13,2.32,0.4c0.72,0.27,1.36,0.64,1.91,1.14c0.55,0.49,0.97,1.08,1.28,1.76
		c0.31,0.68,0.46,1.43,0.46,2.25c0,0.83-0.15,1.58-0.46,2.25c-0.31,0.68-0.73,1.26-1.28,1.76c-0.55,0.5-1.18,0.87-1.91,1.14
		c-0.72,0.27-1.5,0.4-2.32,0.4s-1.6-0.13-2.31-0.4c-0.72-0.26-1.35-0.64-1.9-1.14c-0.55-0.49-0.97-1.08-1.28-1.76
		c-0.31-0.68-0.46-1.43-0.46-2.25c0-0.82,0.15-1.57,0.46-2.25c0.31-0.68,0.73-1.26,1.28-1.76c0.55-0.49,1.18-0.87,1.9-1.14
		C61.19,19.9,61.96,19.77,62.79,19.77z M62.79,30.33c0.87,0,1.66-0.21,2.37-0.64c0.71-0.42,1.27-1.01,1.68-1.77
		c0.41-0.75,0.62-1.62,0.62-2.61c0-1-0.21-1.87-0.62-2.62c-0.41-0.75-0.97-1.33-1.68-1.76c-0.71-0.42-1.5-0.64-2.37-0.64
		c-0.86,0-1.64,0.21-2.35,0.64c-0.71,0.42-1.27,1.01-1.68,1.76c-0.41,0.75-0.62,1.62-0.62,2.62c0,0.99,0.21,1.86,0.62,2.61
		c0.41,0.75,0.97,1.34,1.68,1.77C61.15,30.12,61.93,30.33,62.79,30.33z"/>
	<path class="st2" d="M76.02,19.77c0.82,0,1.6,0.13,2.32,0.4c0.72,0.27,1.36,0.64,1.91,1.14c0.55,0.49,0.97,1.08,1.28,1.76
		c0.31,0.68,0.46,1.43,0.46,2.25c0,0.83-0.15,1.58-0.46,2.25c-0.31,0.68-0.73,1.26-1.28,1.76c-0.55,0.5-1.18,0.87-1.91,1.14
		c-0.72,0.27-1.5,0.4-2.32,0.4c-0.82,0-1.6-0.13-2.31-0.4c-0.72-0.26-1.35-0.64-1.9-1.14c-0.55-0.49-0.97-1.08-1.28-1.76
		c-0.31-0.68-0.46-1.43-0.46-2.25c0-0.82,0.15-1.57,0.46-2.25c0.31-0.68,0.73-1.26,1.28-1.76c0.55-0.49,1.18-0.87,1.9-1.14
		C74.42,19.9,75.19,19.77,76.02,19.77z M76.02,30.33c0.87,0,1.66-0.21,2.37-0.64c0.71-0.42,1.27-1.01,1.68-1.77
		c0.41-0.75,0.62-1.62,0.62-2.61c0-1-0.21-1.87-0.62-2.62c-0.41-0.75-0.97-1.33-1.68-1.76c-0.71-0.42-1.5-0.64-2.37-0.64
		c-0.86,0-1.64,0.21-2.35,0.64c-0.71,0.42-1.27,1.01-1.68,1.76c-0.41,0.75-0.62,1.62-0.62,2.62c0,0.99,0.21,1.86,0.62,2.61
		c0.41,0.75,0.97,1.34,1.68,1.77C74.37,30.12,75.16,30.33,76.02,30.33z"/>
	<path class="st2" d="M84.41,21.15h-0.04c-0.01-0.27-0.12-0.5-0.32-0.68c-0.2-0.18-0.44-0.27-0.72-0.27h-0.21v-0.18h1.29V21.15z
		 M84.41,29.48v1.13h-1.29v-0.18h0.21c0.28,0,0.52-0.09,0.72-0.28c0.2-0.19,0.31-0.41,0.32-0.67H84.41z M85.5,20.02v10.6h-1.13
		v-10.6H85.5z M85.45,21.15v-1.13h1.29v0.18c-0.13,0-0.2,0-0.21,0c-0.28,0-0.53,0.09-0.73,0.27c-0.2,0.18-0.3,0.41-0.3,0.68H85.45z
		 M85.45,29.48h0.05c0,0.26,0.1,0.48,0.3,0.67c0.2,0.19,0.45,0.28,0.74,0.28h0.19v0.18h-1.29V29.48z M91.83,20.14l-4.87,5.21h-0.83
		l4.43-5.21H91.83z M87.11,24.7l4.61,5.02c0.2,0.24,0.41,0.41,0.64,0.53c0.22,0.12,0.52,0.18,0.9,0.19v0.18H92.6
		c-0.14,0-0.32-0.01-0.52-0.03c-0.21-0.02-0.43-0.06-0.67-0.12c-0.24-0.06-0.48-0.16-0.72-0.3c-0.24-0.14-0.47-0.32-0.68-0.56
		c-0.36-0.41-0.69-0.78-0.99-1.1c-0.3-0.32-0.61-0.67-0.94-1.02c-0.34-0.36-0.65-0.7-0.94-1.02c-0.3-0.32-0.63-0.69-1.01-1.1
		L87.11,24.7z M92.97,20.02v0.18h-0.07c-0.37,0-0.71,0.06-1.02,0.18c-0.31,0.12-0.57,0.3-0.77,0.53l-1.2-0.02
		c0.13-0.16,0.15-0.32,0.06-0.47c-0.09-0.15-0.24-0.22-0.45-0.22h-0.16v-0.18h3.53H92.97z"/>
	<path class="st2" d="M95.2,21.15h-0.05c-0.01-0.27-0.13-0.5-0.36-0.68c-0.23-0.18-0.51-0.27-0.84-0.27c-0.01,0-0.09,0-0.25,0v-0.18
		h1.5V21.15z M95.2,29.48v1.13h-1.5v-0.18h0.25c0.33,0,0.61-0.09,0.84-0.28c0.23-0.19,0.35-0.41,0.36-0.67H95.2z M96.26,20.02v10.6
		h-1.11v-10.6H96.26z M96.21,21.15v-1.13h1.5l-0.02,0.18h-0.23c-0.33,0-0.61,0.09-0.84,0.27c-0.23,0.18-0.35,0.41-0.36,0.68H96.21z
		 M96.21,29.48h0.05c0.01,0.26,0.13,0.48,0.36,0.67c0.23,0.19,0.51,0.28,0.84,0.28h0.23l0.02,0.18h-1.5V29.48z"/>
	<path class="st2" d="M100.17,29.52v1.1h-1.32v-0.18h0.3c0.27,0,0.5-0.09,0.69-0.27c0.19-0.18,0.28-0.39,0.28-0.65H100.17z
		 M100.13,19.75l0.76,0.99l0.02,9.87h-0.8v-8.66c0-0.6-0.05-1.34-0.16-2.21H100.13z M100.13,19.75l9.79,9.22l0.18,1.89l-9.79-9.27
		L100.13,19.75z M100.91,29.52c0,0.26,0.1,0.48,0.29,0.65c0.19,0.18,0.42,0.27,0.68,0.27h0.3v0.18h-1.32v-1.1H100.91z M109.31,21.11
		c-0.01-0.26-0.11-0.48-0.3-0.65c-0.19-0.18-0.42-0.27-0.69-0.27h-0.3v-0.18h1.32v1.1H109.31z M110.09,20.02v8.58
		c0,0.38,0.01,0.74,0.04,1.09c0.02,0.35,0.06,0.74,0.12,1.17h-0.16l-0.78-0.94v-9.91H110.09z M110.04,21.11v-1.1h1.32v0.18h-0.3
		c-0.26,0-0.48,0.09-0.68,0.27c-0.19,0.18-0.29,0.39-0.29,0.65H110.04z"/>
	<path class="st2" d="M118.13,19.77c0.54,0,1.05,0.04,1.53,0.11c0.48,0.08,0.93,0.19,1.36,0.35c0.43,0.16,0.84,0.36,1.23,0.61
		l0.39,2.49h-0.16c-0.16-0.69-0.43-1.27-0.8-1.71c-0.37-0.45-0.85-0.78-1.44-1c-0.59-0.22-1.3-0.33-2.12-0.33
		c-0.9,0-1.68,0.2-2.36,0.61c-0.68,0.41-1.2,0.98-1.58,1.73c-0.38,0.75-0.57,1.64-0.57,2.68c0,1.02,0.19,1.91,0.57,2.67
		c0.38,0.75,0.91,1.33,1.59,1.74c0.68,0.41,1.47,0.61,2.37,0.61c0.49,0,0.96-0.05,1.41-0.16c0.45-0.11,0.88-0.27,1.3-0.5
		s0.81-0.52,1.17-0.87l0.02-2.35c0.01-0.22-0.06-0.39-0.2-0.51c-0.15-0.12-0.35-0.18-0.61-0.18h-0.25v-0.18h3.23v0.18h-0.25
		c-0.53,0-0.8,0.24-0.8,0.71v2.12c-0.27,0.34-0.64,0.69-1.11,1.04c-0.47,0.35-1.03,0.65-1.69,0.88c-0.65,0.24-1.4,0.35-2.23,0.35
		c-1.17-0.01-2.18-0.24-3.05-0.69c-0.87-0.45-1.54-1.08-2.02-1.91c-0.48-0.82-0.72-1.81-0.72-2.95c0-1.15,0.24-2.14,0.72-2.97
		c0.48-0.82,1.16-1.46,2.03-1.91C115.96,19.99,116.97,19.77,118.13,19.77z"/>
	<path class="st2" d="M59.23,29.78c0.19,0,0.39,0.01,0.61,0.03c0.22,0.02,0.43,0.06,0.64,0.1c0.21,0.04,0.39,0.08,0.57,0.12
		c0.17,0.04,0.3,0.09,0.4,0.13v1.96h-0.16c0-0.57-0.19-1.01-0.58-1.33c-0.39-0.32-0.86-0.48-1.41-0.48c-0.65,0-1.17,0.2-1.57,0.61
		c-0.4,0.41-0.6,0.88-0.6,1.42c0,0.22,0.05,0.49,0.15,0.79c0.1,0.3,0.29,0.58,0.56,0.84l3.48,3.22c0.35,0.33,0.59,0.68,0.71,1.06
		c0.12,0.38,0.18,0.74,0.18,1.1c0,0.98-0.3,1.77-0.89,2.39c-0.6,0.61-1.4,0.92-2.41,0.92c-0.28,0-0.62-0.03-1-0.09
		c-0.38-0.06-0.75-0.16-1.11-0.31c-0.36-0.15-0.66-0.34-0.89-0.57c-0.04-0.19-0.05-0.42-0.05-0.71c0-0.28,0.02-0.58,0.07-0.89
		c0.05-0.31,0.11-0.6,0.19-0.86h0.16c-0.06,0.6,0.02,1.13,0.23,1.57S57,41.57,57.4,41.8s0.87,0.33,1.39,0.31
		c0.65-0.04,1.2-0.26,1.67-0.68c0.47-0.42,0.7-0.98,0.7-1.69c0-0.34-0.06-0.65-0.18-0.93c-0.12-0.28-0.29-0.52-0.51-0.72l-3.39-3.14
		c-0.35-0.33-0.6-0.69-0.74-1.09c-0.14-0.39-0.21-0.76-0.21-1.1c0-0.5,0.12-0.97,0.35-1.43c0.24-0.46,0.59-0.83,1.05-1.12
		C57.99,29.92,58.56,29.78,59.23,29.78z M61.44,29.96v0.37H60.1v-0.37H61.44z"/>
	<path class="st2" d="M65.99,32.91l-1.5-0.05c-0.19-0.27-0.42-0.49-0.7-0.64c-0.28-0.16-0.59-0.24-0.93-0.24h-0.21v-0.18h4.1v0.18
		h-0.21c-0.26,0-0.44,0.1-0.56,0.31C65.87,32.49,65.88,32.69,65.99,32.91z M65.38,31.81l3.27,5.81l-0.72,0.62l-4.08-6.43H65.38z
		 M67.81,41.26v1.13h-1.29v-0.18c0.01,0,0.08,0,0.21,0c0.28,0,0.52-0.09,0.71-0.28c0.19-0.19,0.3-0.41,0.31-0.67H67.81z
		 M68.91,37.83v4.56h-1.15v-4.56H68.91z M71.88,31.81h1.11l-4.2,6.39l-0.65-0.19L71.88,31.81z M68.86,41.26h0.05
		c0.01,0.26,0.11,0.48,0.31,0.67c0.19,0.19,0.43,0.28,0.72,0.28h0.21v0.18h-1.29V41.26z M71.2,32.92c0.13-0.23,0.14-0.45,0.02-0.65
		c-0.12-0.2-0.31-0.3-0.56-0.3h-0.21v-0.18h3.69v0.18h-0.21c-0.33,0-0.64,0.09-0.93,0.27c-0.29,0.18-0.52,0.39-0.68,0.63L71.2,32.92
		z"/>
	<path class="st2" d="M77.74,31.55c0.33,0,0.62,0.01,0.87,0.04c0.25,0.02,0.46,0.05,0.64,0.08c0.18,0.03,0.34,0.06,0.48,0.11
		c0.14,0.04,0.26,0.08,0.36,0.11l0.02,1.75h-0.21c0-0.48-0.16-0.86-0.49-1.14c-0.33-0.28-0.84-0.41-1.54-0.41
		c-0.59,0-1.09,0.16-1.51,0.49c-0.42,0.32-0.62,0.72-0.61,1.19c0,0.15,0.02,0.31,0.06,0.47c0.04,0.16,0.11,0.32,0.21,0.47
		c0.1,0.15,0.24,0.31,0.41,0.46L80,37.9c0.27,0.22,0.47,0.51,0.6,0.86c0.13,0.35,0.2,0.69,0.21,1.03c0.01,0.52-0.12,1-0.41,1.43
		c-0.28,0.44-0.66,0.78-1.14,1.03c-0.48,0.25-1,0.38-1.58,0.38c-0.34,0-0.71-0.03-1.1-0.09c-0.39-0.06-0.76-0.15-1.1-0.27
		c-0.34-0.12-0.62-0.28-0.85-0.47c-0.04-0.16-0.05-0.37-0.05-0.63c0-0.25,0.02-0.52,0.06-0.8c0.04-0.28,0.1-0.54,0.17-0.76h0.21
		c-0.05,0.53,0.03,0.98,0.23,1.36s0.49,0.66,0.88,0.86c0.39,0.2,0.84,0.29,1.36,0.28c0.73-0.02,1.3-0.21,1.72-0.56
		c0.42-0.35,0.63-0.81,0.63-1.39c0-0.28-0.05-0.54-0.15-0.77c-0.1-0.23-0.26-0.44-0.49-0.64l-3.53-2.72
		c-0.33-0.28-0.55-0.59-0.67-0.94c-0.12-0.34-0.18-0.67-0.18-0.97c0-0.48,0.13-0.92,0.39-1.31c0.26-0.39,0.61-0.7,1.05-0.93
		C76.71,31.66,77.2,31.55,77.74,31.55z M80.07,31.71l0.02,0.32h-1.25v-0.32H80.07z"/>
	<path class="st2" d="M81.59,31.49c0.11,0.04,0.27,0.08,0.49,0.12c0.22,0.05,0.46,0.09,0.73,0.11c0.27,0.03,0.52,0.04,0.76,0.04
		l-1.98,0.18V31.49z M91.29,31.78v0.53h-9.7v-0.53H91.29z M82.67,32.27v0.04c-0.27,0.01-0.49,0.1-0.64,0.27
		c-0.16,0.17-0.24,0.38-0.24,0.63v0.28h-0.19v-1.22H82.67z M85.9,41.26v1.13h-1.29v-0.18c0.01,0,0.08,0,0.21,0
		c0.28,0,0.52-0.09,0.72-0.28c0.2-0.19,0.31-0.41,0.32-0.67H85.9z M87.01,31.85v10.54h-1.15V31.85H87.01z M86.96,41.26h0.05
		c0.01,0.26,0.12,0.48,0.32,0.67c0.2,0.19,0.44,0.28,0.72,0.28h0.2v0.18h-1.29V41.26z M91.29,31.49v0.46l-1.98-0.18
		c0.23,0,0.48-0.01,0.75-0.04c0.27-0.03,0.51-0.07,0.73-0.11C91.02,31.57,91.18,31.53,91.29,31.49z M91.29,32.27v1.22h-0.2v-0.28
		c0-0.25-0.08-0.46-0.24-0.63s-0.37-0.26-0.64-0.27v-0.04H91.29z"/>
	<path class="st2" d="M93.37,32.91h-0.04c-0.01-0.27-0.11-0.49-0.3-0.67c-0.19-0.18-0.43-0.27-0.72-0.27h-0.25v-0.18h1.54
		L93.37,32.91z M93.37,41.26l0.23,1.13h-1.54v-0.18h0.25c0.29,0,0.53-0.09,0.72-0.28c0.19-0.19,0.29-0.41,0.3-0.67H93.37z
		 M94.47,31.79v10.6h-1.13v-10.6H94.47z M99.2,31.79v0.55h-4.77v-0.55H99.2z M98.39,36.83v0.53h-3.96v-0.53H98.39z M99.22,41.84
		l-0.03,0.55h-4.75v-0.55H99.22z M100.21,39.87l-0.97,2.53h-2.69l0.6-0.55c0.59,0,1.06-0.09,1.42-0.26
		c0.36-0.17,0.65-0.41,0.87-0.71s0.42-0.64,0.58-1.02H100.21z M99.2,31.51v0.46l-2.01-0.18c0.36,0,0.75-0.03,1.17-0.1
		C98.76,31.63,99.05,31.57,99.2,31.51z M98.39,35.86v1.01h-0.92v-0.04c0.25,0,0.43-0.07,0.55-0.22c0.12-0.15,0.18-0.32,0.18-0.52
		v-0.23H98.39z M98.39,37.32v1.01h-0.19V38.1c0-0.2-0.06-0.37-0.18-0.52c-0.12-0.15-0.3-0.22-0.55-0.22v-0.04H98.39z M99.2,32.29
		v1.22h-0.19v-0.27c0-0.25-0.08-0.46-0.24-0.64c-0.16-0.18-0.37-0.27-0.64-0.27v-0.05H99.2z"/>
	<path class="st2" d="M102.27,41.21v1.18h-1.84v-0.18h0.26c0.31,0,0.57-0.09,0.8-0.27c0.23-0.18,0.36-0.42,0.4-0.74H102.27z
		 M103.28,31.55h0.18l0.35,1.04l-1.09,9.8h-0.97L103.28,31.55z M102.8,41.47c-0.01,0.18,0.03,0.34,0.12,0.5
		c0.09,0.16,0.27,0.25,0.53,0.26h0.25v0.16h-1.01v-0.92H102.8z M103.46,31.55l4.8,9.24l-0.41,1.85l-4.73-9.15L103.46,31.55z
		 M112.62,31.55l0.16,1.15l-4.13,8.14c-0.18,0.4-0.31,0.74-0.41,1.02s-0.16,0.54-0.21,0.79h-0.18l-0.25-1.11L112.62,31.55z
		 M112.78,31.55l1.59,10.84h-1.34l-1.15-8.88l0.74-1.96H112.78z M112.91,41.47h0.12v0.92h-1.03v-0.16h0.26
		c0.27-0.01,0.45-0.1,0.54-0.26C112.9,41.8,112.93,41.64,112.91,41.47z M113.84,41.21h0.35c0.05,0.32,0.19,0.56,0.42,0.74
		c0.24,0.18,0.5,0.27,0.8,0.27h0.26v0.18h-1.84V41.21z"/>
</g>
</svg>
